# xmcd
#
# Track frame offsets: 
#        150
#        14925
#        28275
#        38700
#        52275
#        68512
#        77662
#        89587
#        108299
#        130311
#        142611
#        154798
#        170998
#        180673
#
# Disc length: 2551 seconds
#
# Revision: 0
# Processed by: cddbd v1.5.2PL0 Copyright (c) Steve Scherf et al.
# Submitted via: ExactAudioCopy v0.99pb1
#
DISCID=c309f50e
DTITLE=Various Artist - Best Of Country - CD1
DYEAR=2007
DGENRE=Country
TTITLE0=John Denver - Take Me Home, Country Roads
TTITLE1=Lynn Anderson - Rose Garden
TTITLE2=Johnny Cash - If I Were A Carpenter
TTITLE3=Glen Campbell - Rhinestone Cowboy
TTITLE4=Don Gibson - Green Green Grass Of Home
TTITLE5=Dave Dudley - Keep On Truckin
TTITLE6=Kenny Rogers - Me And Bobby McGee
TTITLE7=Bellamy Brothers - If I Said You Had A Beautiful Body
TTITLE8=Willy Nelson - City Of New Orleans
TTITLE9=Dolly Parton - Letter To Heaven
TTITLE10=Billy Joe Spears - Mystery Blues
TTITLE11=Freddy Fender - Another Shot Of Ambition
TTITLE12=Jim Reeves - I'm Getting Better
TTITLE13=Roger Miller - King Of The Road
EXTD=
EXTT0=
EXTT1=
EXTT2=
EXTT3=
EXTT4=
EXTT5=
EXTT6=
EXTT7=
EXTT8=
EXTT9=
EXTT10=
EXTT11=
EXTT12=
EXTT13=
PLAYORDER=
